<svg width="22" height="22" viewBox="0 0 22 22" fill="none" xmlns="http://www.w3.org/2000/svg">
<path fill-rule="evenodd" clip-rule="evenodd" d="M0.916672 2.6015C0.916672 2.15465 1.09418 1.72611 1.41015 1.41014C1.72612 1.09418 2.15466 0.916666 2.60151 0.916666H19.3967C19.6181 0.916305 19.8375 0.959624 20.0421 1.04414C20.2468 1.12866 20.4328 1.25273 20.5895 1.40922C20.7462 1.56572 20.8704 1.75159 20.9552 1.95618C21.0399 2.16076 21.0835 2.38006 21.0833 2.6015V19.3967C21.0836 19.6182 21.0401 19.8375 20.9555 20.0422C20.8709 20.2469 20.7468 20.4329 20.5902 20.5895C20.4336 20.7462 20.2477 20.8704 20.0431 20.9552C19.8384 21.0399 19.6191 21.0835 19.3976 21.0833H2.60151C2.38017 21.0833 2.16101 21.0397 1.95654 20.955C1.75206 20.8703 1.56629 20.7461 1.40982 20.5895C1.25336 20.433 1.12928 20.2471 1.04466 20.0426C0.960042 19.8381 0.916552 19.6189 0.916672 19.3976V2.6015ZM8.89901 8.60567H11.6298V9.977C12.0239 9.18867 13.0323 8.47917 14.5475 8.47917C17.4524 8.47917 18.1408 10.0494 18.1408 12.9305V18.2673H15.2011V13.5868C15.2011 11.946 14.8069 11.0202 13.8059 11.0202C12.4172 11.0202 11.8397 12.0184 11.8397 13.5868V18.2673H8.89901V8.60567ZM3.85734 18.1418H6.79801V8.47917H3.85734V18.1408V18.1418ZM7.21876 5.32767C7.2243 5.57945 7.1795 5.8298 7.08698 6.06404C6.99445 6.29827 6.85608 6.51167 6.67997 6.6917C6.50386 6.87173 6.29356 7.01477 6.06142 7.11242C5.82928 7.21008 5.57998 7.26038 5.32813 7.26038C5.07629 7.26038 4.82698 7.21008 4.59484 7.11242C4.3627 7.01477 4.1524 6.87173 3.97629 6.6917C3.80018 6.51167 3.66181 6.29827 3.56929 6.06404C3.47676 5.8298 3.43196 5.57945 3.43751 5.32767C3.44839 4.83345 3.65236 4.36314 4.00573 4.01746C4.35911 3.67178 4.83379 3.47822 5.32813 3.47822C5.82247 3.47822 6.29715 3.67178 6.65053 4.01746C7.0039 4.36314 7.20787 4.83345 7.21876 5.32767V5.32767Z" fill="#A32F2F"/>
</svg>
