<svg width="250" height="269" viewBox="0 0 250 269" fill="none" xmlns="http://www.w3.org/2000/svg">
<rect x="18" y="22" width="232" height="232" rx="20" fill="#2FC18C"/>
<path d="M165.494 140.577C163.845 137.563 163.858 133.914 165.528 130.913L195.489 77.0854C200.514 68.0562 214.263 71.6511 214.226 81.9846L213.84 189.853C213.803 200.187 200.028 203.683 195.068 194.618L165.494 140.577Z" fill="white"/>
<path d="M122.925 156.734C126.36 156.777 129.533 158.58 131.327 161.509L163.039 213.261C168.438 222.072 158.556 232.285 149.572 227.18L57.1698 174.674C48.1854 169.568 51.9018 155.852 62.2345 155.98L122.925 156.734Z" fill="white"/>
<path d="M132.6 110.534C130.828 113.477 127.67 115.304 124.235 115.374L60.2452 116.666C49.9138 116.875 46.091 103.187 55.0355 98.0124L152.041 41.8893C160.985 36.7145 170.946 46.8507 165.615 55.7034L132.6 110.534Z" fill="white"/>
</svg>
