<svg width="600" height="31" viewBox="0 0 600 31" fill="none" xmlns="http://www.w3.org/2000/svg">
<rect width="600" height="31" fill="#828282"/>
<path d="M263.199 21H264.844V17.1648H267.082C269.612 17.1648 270.864 15.636 270.864 13.6225C270.864 11.6143 269.623 10.0909 267.087 10.0909H263.199V21ZM264.844 15.7692V11.5025H266.911C268.541 11.5025 269.207 12.3867 269.207 13.6225C269.207 14.8583 268.541 15.7692 266.933 15.7692H264.844ZM274.439 10.0909H272.793V21H274.439V10.0909ZM277.981 10.0909H276.074L279.532 15.5455L276.053 21H277.971L280.592 16.7919H280.677L283.297 21H285.215L281.795 15.5455L285.194 10.0909H283.287L280.677 14.3576H280.592L277.981 10.0909ZM286.826 21H293.73V19.5831H288.472V16.2433H293.309V14.8317H288.472V11.5078H293.666V10.0909H286.826V21ZM295.865 21H302.454V19.5831H297.51V10.0909H295.865V21ZM309.223 21L310.224 18.1129H314.485L315.481 21H317.229L313.303 10.0909H311.401L307.475 21H309.223ZM310.703 16.728L312.312 12.0724H312.397L314.006 16.728H310.703ZM318.804 21H320.45V16.8718H322.687C322.724 16.8718 322.756 16.8718 322.794 16.8718L325.01 21H326.885L324.466 16.5842C325.803 16.0888 326.469 14.9755 326.469 13.5107C326.469 11.5025 325.223 10.0909 322.692 10.0909H318.804V21ZM320.45 15.4549V11.5025H322.517C324.141 11.5025 324.812 12.2749 324.812 13.5107C324.812 14.7411 324.141 15.4549 322.538 15.4549H320.45ZM327.934 11.5078H331.332V21H332.973V11.5078H336.377V10.0909H327.934V11.5078Z" fill="#494949"/>
<circle cx="16" cy="16" r="8" fill="#BF3939"/>
<circle cx="36" cy="16" r="8" fill="#C7A941"/>
<circle cx="56" cy="16" r="8" fill="#2FC18C"/>
</svg>
