<svg width="22" height="18" viewBox="0 0 22 18" fill="none" xmlns="http://www.w3.org/2000/svg">
<path d="M19.7386 4.33736C19.7525 4.52771 19.7525 4.71809 19.7525 4.90844C19.7525 10.7142 15.2157 17.4039 6.92385 17.4039C4.36928 17.4039 1.9962 16.6832 0 15.4324C0.362957 15.4731 0.711906 15.4867 1.08883 15.4867C3.19666 15.4867 5.13704 14.7933 6.68654 13.6104C4.7043 13.5696 3.04313 12.3051 2.47079 10.5647C2.75 10.6055 3.02917 10.6327 3.32234 10.6327C3.72715 10.6327 4.132 10.5783 4.50888 10.4831C2.4429 10.0752 0.893363 8.30763 0.893363 6.17294V6.11857C1.49359 6.44489 2.19162 6.64884 2.93141 6.676C1.71695 5.88737 0.921293 4.54131 0.921293 3.01846C0.921293 2.20266 1.1446 1.45484 1.53549 0.80219C3.75504 3.46716 7.09135 5.20752 10.8324 5.39791C10.7626 5.07158 10.7207 4.7317 10.7207 4.39177C10.7207 1.97151 12.7309 0 15.2296 0C16.5278 0 17.7004 0.530274 18.524 1.38687C19.543 1.19653 20.5202 0.829395 21.3857 0.326325C21.0506 1.34611 20.3387 2.20271 19.4035 2.74654C20.3109 2.65141 21.1903 2.40661 21.9999 2.06673C21.3858 2.93689 20.618 3.71187 19.7386 4.33736V4.33736Z" fill="#A32F2F"/>
</svg>
